<svg width="87" height="16" viewBox="0 0 87 16" fill="none" xmlns="http://www.w3.org/2000/svg">
<g clip-path="url(#clip0_66_94)">
<path d="M23.3031 11.96V4.79927H25.3145V11.96H23.3031ZM21.1609 6.50899V4.79927H27.4667V6.50899H21.1609ZM31.4781 12.1008C30.9149 12.1008 30.3953 12.0069 29.9193 11.8192C29.4499 11.6314 29.0376 11.3699 28.6822 11.0347C28.3336 10.6995 28.0621 10.3039 27.8676 9.84796C27.6732 9.39204 27.576 8.89924 27.576 8.36956C27.576 7.83318 27.6698 7.34038 27.8576 6.89116C28.052 6.44194 28.3235 6.04971 28.6722 5.71447C29.0208 5.37924 29.4298 5.1211 29.8992 4.94007C30.3752 4.75234 30.8948 4.65847 31.458 4.65847C32.0212 4.65847 32.5375 4.75234 33.0068 4.94007C33.4829 5.1211 33.8952 5.37924 34.2438 5.71447C34.5925 6.04971 34.8607 6.44529 35.0484 6.90122C35.2429 7.35044 35.3401 7.84324 35.3401 8.37962C35.3401 8.90929 35.2429 9.40209 35.0484 9.85802C34.8607 10.3072 34.5925 10.7028 34.2438 11.0448C33.8952 11.38 33.4862 11.6415 33.0169 11.8292C32.5475 12.0102 32.0346 12.1008 31.4781 12.1008ZM31.458 10.3307C31.8335 10.3307 32.1587 10.2502 32.4336 10.0893C32.7085 9.92842 32.9197 9.70046 33.0672 9.40545C33.2147 9.11044 33.2884 8.76514 33.2884 8.36956C33.2884 8.07455 33.2448 7.80971 33.1577 7.57505C33.0772 7.33367 32.9565 7.12918 32.7956 6.96156C32.6347 6.78724 32.4403 6.65649 32.2123 6.56933C31.991 6.47547 31.7396 6.42853 31.458 6.42853C31.0825 6.42853 30.7574 6.50899 30.4825 6.6699C30.2076 6.82411 29.9964 7.04872 29.8489 7.34373C29.7014 7.63204 29.6276 7.97398 29.6276 8.36956C29.6276 8.67127 29.6678 8.94282 29.7483 9.18419C29.8355 9.42556 29.9595 9.63341 30.1204 9.80773C30.2813 9.97535 30.4724 10.1061 30.6937 10.2C30.9216 10.2871 31.1764 10.3307 31.458 10.3307ZM40.5131 11.96L38.0088 8.22876L40.3924 4.79927H42.8161L40.0605 8.52042V7.87676L42.9268 11.96H40.5131ZM36.1684 11.96V4.79927H38.1798V11.96H36.1684ZM43.4068 11.96V4.79927H45.4182V11.96H43.4068ZM45.036 11.96V10.2905H48.8779V11.96H45.036ZM45.036 9.12385V7.49459H48.5057V9.12385H45.036ZM45.036 6.46876V4.79927H48.8175V6.46876H45.036ZM49.83 11.96V4.79927H51.238L51.8414 6.30785V11.96H49.83ZM54.758 11.96L50.6044 6.7403L51.238 4.79927L55.3916 10.0189L54.758 11.96ZM54.758 11.96L54.2551 10.3709V4.79927H56.2666V11.96H54.758Z" fill="white"/>
<path d="M61.1234 12.0806C60.5669 12.0806 60.0507 11.9901 59.5746 11.8091C59.1053 11.6214 58.693 11.3599 58.3376 11.0246C57.989 10.6894 57.7174 10.2972 57.523 9.84796C57.3285 9.39874 57.2313 8.90929 57.2313 8.37962C57.2313 7.84324 57.3319 7.35044 57.533 6.90122C57.7409 6.452 58.0258 6.06312 58.3879 5.73459C58.7566 5.39935 59.1824 5.14122 59.6651 4.96019C60.1479 4.77246 60.6642 4.67859 61.2139 4.67859C61.8777 4.67859 62.4711 4.79257 62.9941 5.02053C63.5237 5.24849 63.9528 5.55691 64.2814 5.94579L62.9237 7.3035C62.6756 7.0152 62.4174 6.80065 62.1493 6.65985C61.8811 6.51905 61.5592 6.44865 61.1838 6.44865C60.8284 6.44865 60.5066 6.5291 60.2183 6.69002C59.93 6.84423 59.6987 7.06548 59.5243 7.35379C59.3567 7.64209 59.2729 7.98068 59.2729 8.36956C59.2729 8.75844 59.35 9.10038 59.5042 9.39539C59.6651 9.68369 59.8864 9.9083 60.168 10.0692C60.4496 10.2301 60.7781 10.3106 61.1536 10.3106C61.5157 10.3106 61.8207 10.2402 62.0688 10.0994C62.3169 9.95859 62.5046 9.75745 62.632 9.49596C62.7661 9.23448 62.8331 8.92606 62.8331 8.5707L64.211 9.44568L60.8821 9.3451V7.73596H64.8546V8.03767C64.8546 8.89588 64.6971 9.6267 64.3819 10.2301C64.0735 10.8336 63.6377 11.2928 63.0745 11.608C62.518 11.9231 61.8677 12.0806 61.1234 12.0806ZM65.6077 11.96V4.79927H67.6191V11.96H65.6077ZM67.2369 11.96V10.2905H71.0787V11.96H67.2369ZM67.2369 9.12385V7.49459H70.7066V9.12385H67.2369ZM67.2369 6.46876V4.79927H71.0184V6.46876H67.2369ZM72.0309 11.96V4.79927H73.4892L76.1543 8.70145H75.5207L78.1758 4.79927H79.6341V11.96H77.6428V8.09802L77.9344 8.17847L76.4761 10.2704H75.1888L73.7406 8.17847L74.0222 8.09802V11.96H72.0309ZM82.9967 12.0806C82.3866 12.0806 81.8535 11.9935 81.3976 11.8192C80.9484 11.6381 80.5327 11.3532 80.1505 10.9643L81.4077 9.70716C81.6692 9.95524 81.944 10.1463 82.2324 10.2804C82.5207 10.4078 82.8291 10.4715 83.1576 10.4715C83.4325 10.4715 83.6404 10.4313 83.7812 10.3508C83.922 10.2637 83.9924 10.1463 83.9924 9.99882C83.9924 9.85131 83.932 9.73063 83.8113 9.63676C83.6906 9.53619 83.5297 9.44903 83.3286 9.37528C83.1341 9.29482 82.9162 9.21436 82.6749 9.1339C82.4402 9.05345 82.2055 8.95623 81.9709 8.84225C81.7362 8.72827 81.5183 8.59082 81.3172 8.4299C81.1227 8.26228 80.9652 8.05779 80.8445 7.81642C80.7238 7.56834 80.6634 7.26663 80.6634 6.91127C80.6634 6.44865 80.7741 6.04971 80.9953 5.71447C81.2166 5.37924 81.5284 5.12446 81.9306 4.95013C82.3329 4.7691 82.8056 4.67859 83.3487 4.67859C83.8851 4.67859 84.3812 4.76575 84.8372 4.94007C85.2998 5.10769 85.682 5.34907 85.9837 5.66419L84.7165 6.92133C84.4952 6.70678 84.274 6.54922 84.0527 6.44865C83.8314 6.34137 83.5901 6.28773 83.3286 6.28773C83.1207 6.28773 82.9531 6.32126 82.8257 6.3883C82.705 6.45535 82.6447 6.55592 82.6447 6.69002C82.6447 6.83082 82.705 6.94815 82.8257 7.04202C82.9464 7.12918 83.104 7.20964 83.2984 7.28339C83.4996 7.35714 83.7175 7.43425 83.9521 7.5147C84.1935 7.59516 84.4315 7.69238 84.6662 7.80636C84.9008 7.91364 85.1154 8.05444 85.3098 8.22876C85.511 8.39638 85.6719 8.60758 85.7926 8.86236C85.9133 9.11714 85.9736 9.42556 85.9736 9.78762C85.9736 10.5184 85.7121 11.085 85.1892 11.4873C84.6729 11.8829 83.9421 12.0806 82.9967 12.0806Z" fill="url(#paint0_radial_66_94)"/>
<path d="M4.67599 5.09295C4.90729 5.29167 5.17986 5.43669 5.47384 5.51775L10.4299 6.88396C10.7321 6.9673 11.0494 6.98132 11.3576 6.924L15.0334 6.24041L15.1799 6.21209L15.9865 8.22088C15.9942 8.24025 15.9874 8.26219 15.9699 8.27361L5.99727 14.8C5.97639 14.8135 5.94912 14.8061 5.93673 14.7834L0.00606356 3.89471C-0.00525611 3.87392 0.000115916 3.84687 0.0177823 3.83221L1.64083 2.48455L4.67599 5.09295Z" fill="#84F82E"/>
<path d="M5.53048 1.51385C5.71183 1.4873 5.89683 1.49905 6.07345 1.54803L11.6565 3.09588C11.8235 3.14219 11.9799 3.22149 12.1164 3.3283L14.1076 4.88592L11.0832 5.44939C10.9986 5.46512 10.9113 5.46152 10.8283 5.43865L5.87227 4.07146C5.79171 4.04921 5.71693 4.00971 5.65352 3.95525L3.20821 1.85369L5.53048 1.51385Z" fill="#84F82E"/>
</g>
<defs>
<radialGradient id="paint0_radial_66_94" cx="0" cy="0" r="1" gradientUnits="userSpaceOnUse" gradientTransform="translate(54.8472 5.29015) rotate(10.9313) scale(32.747 31.2492)">
<stop stop-color="#A1FF1D"/>
<stop offset="0.5" stop-color="#0BE678"/>
<stop offset="1" stop-color="#00AAFF"/>
</radialGradient>
<clipPath id="clip0_66_94">
<rect width="87" height="16" fill="white"/>
</clipPath>
</defs>
</svg>
